<svg width="32" height="32" viewBox="0 0 32 32" fill="none" xmlns="http://www.w3.org/2000/svg">
<rect width="32" height="32" rx="8" fill="#1B4B91"/>
<path d="M5.3584 20.9846C5.45991 21.1382 5.68549 21.138 5.78711 20.9846L6.21484 20.3372V27.1252L4.85742 28.5872H4.8457V20.2073L5.3584 20.9846ZM28.7266 13.384L18.5703 23.9543C18.334 24.2003 17.9493 24.2286 17.6797 24.0305C17.6223 23.9995 17.5684 23.9591 17.5205 23.9104C16.8424 23.2209 16.3238 22.6896 15.8057 22.1594L15.7959 22.1506C15.4142 21.76 15.0328 21.3688 14.5869 20.9143L7.35352 28.5872H5.53027L14.084 19.5129L14.5664 19.0012L15.0596 19.5032C15.7378 20.1928 16.2572 20.7239 16.7754 21.2542C17.1793 21.6675 17.5827 22.0807 18.0615 22.5686L28.7344 11.4622L28.7266 13.384ZM24.1963 9.26489L23.7686 8.61841C23.667 8.46478 23.4414 8.46478 23.3398 8.61841L22.8262 9.39478V4.78345H15.2061V18.7708L14.5898 18.1086L13.8359 18.9202V4.78345H12.6367C9.0902 4.78359 6.21484 7.65877 6.21484 11.2053V16.7063H7.49609C7.70134 16.7063 7.82388 16.935 7.70996 17.1057L5.74414 20.0471C5.64242 20.1993 5.41812 20.1993 5.31641 20.0471L3.35059 17.1057C3.2367 16.9352 3.35848 16.7066 3.56348 16.7063H4.8457V11.2053C4.8457 6.90215 8.33358 3.41347 12.6367 3.41333H24.1963V9.26489ZM23.2979 9.55493C23.3996 9.40313 23.6229 9.4031 23.7246 9.55493L25.6914 12.4963C25.8054 12.667 25.6828 12.8957 25.4775 12.8958H24.1963V15.4934L22.8262 16.9836V12.8958H21.5449C21.3396 12.8957 21.217 12.667 21.3311 12.4963L23.2979 9.55493Z" fill="white"/>
</svg>
