<svg width="140" height="46" viewBox="0 0 140 46" fill="none" xmlns="http://www.w3.org/2000/svg">
<path d="M126.301 8.43732V11.5436H118.181V8.43732H126.301Z" fill="#1B4B91"/>
<path d="M106.001 5.99273C105.931 5.25139 105.633 4.67547 105.105 4.26497C104.578 3.85448 103.862 3.64923 102.958 3.64923C102.344 3.64923 101.825 3.74113 101.402 3.92494C100.979 4.10261 100.654 4.35075 100.428 4.66934C100.208 4.98793 100.098 5.34941 100.098 5.75378C100.086 6.09076 100.153 6.38484 100.298 6.63604C100.448 6.88724 100.654 7.10474 100.915 7.28854C101.176 7.46622 101.477 7.62245 101.819 7.75724C102.161 7.8859 102.526 7.99618 102.915 8.08809L104.514 8.49245C105.291 8.67626 106.004 8.92133 106.653 9.22767C107.302 9.53401 107.864 9.9108 108.339 10.3581C108.815 10.8053 109.183 11.3322 109.444 11.9388C109.71 12.5453 109.846 13.2407 109.852 14.0249C109.846 15.1768 109.568 16.1754 109.018 17.0209C108.473 17.8603 107.684 18.5128 106.653 18.9784C105.627 19.438 104.39 19.6677 102.941 19.6677C101.503 19.6677 100.251 19.4349 99.1849 18.9693C98.1243 18.5036 97.2955 17.8144 96.6985 16.9015C96.1074 15.9824 95.7973 14.8459 95.7683 13.4919H99.411C99.4515 14.123 99.6225 14.6499 99.9239 15.0726C100.231 15.4892 100.64 15.8048 101.15 16.0192C101.666 16.2275 102.248 16.3317 102.897 16.3317C103.535 16.3317 104.088 16.2336 104.558 16.0376C105.033 15.8415 105.401 15.5689 105.662 15.2197C105.923 14.8704 106.053 14.4691 106.053 14.0158C106.053 13.593 105.934 13.2376 105.697 12.9497C105.465 12.6617 105.123 12.4167 104.671 12.2145C104.224 12.0123 103.677 11.8285 103.028 11.6631L101.089 11.1484C99.5878 10.7624 98.4025 10.1589 97.5331 9.33795C96.6638 8.51696 96.232 7.41108 96.2378 6.0203C96.232 4.88071 96.5189 3.88511 97.0985 3.03349C97.6838 2.18187 98.4865 1.51711 99.5066 1.03922C100.527 0.561332 101.686 0.322388 102.984 0.322388C104.306 0.322388 105.459 0.561332 106.444 1.03922C107.435 1.51711 108.206 2.18187 108.757 3.03349C109.307 3.88511 109.591 4.87152 109.609 5.99273H106.001Z" fill="#1B4B91"/>
<path d="M93.2448 0.579681V19.4012H89.4805V0.579681H93.2448Z" fill="#1B4B91"/>
<path d="M72.4497 3.86057V0.579681H87.0725V3.86057H81.6216V19.4012H77.9007V3.86057H72.4497Z" fill="#1B4B91"/>
<path d="M71.1526 9.99051C71.1526 12.043 70.7845 13.7891 70.0485 15.2289C69.3182 16.6687 68.3213 17.7685 67.0578 18.5282C65.8001 19.2818 64.386 19.6586 62.8153 19.6586C61.233 19.6586 59.8131 19.2787 58.5554 18.519C57.2977 17.7593 56.3037 16.6595 55.5734 15.2197C54.8432 13.7799 54.478 12.0369 54.478 9.99051C54.478 7.93804 54.8432 6.19191 55.5734 4.75211C56.3037 3.31232 57.2977 2.21563 58.5554 1.46203C59.8131 0.70231 61.233 0.322449 62.8153 0.322449C64.386 0.322449 65.8001 0.70231 67.0578 1.46203C68.3213 2.21563 69.3182 3.31232 70.0485 4.75211C70.7845 6.19191 71.1526 7.93804 71.1526 9.99051ZM67.336 9.99051C67.336 8.661 67.1477 7.5398 66.7709 6.62691C66.4 5.71402 65.8755 5.02169 65.1974 4.54993C64.5193 4.07817 63.7252 3.84229 62.8153 3.84229C61.9054 3.84229 61.1113 4.07817 60.4332 4.54993C59.7551 5.02169 59.2277 5.71402 58.851 6.62691C58.48 7.5398 58.2946 8.661 58.2946 9.99051C58.2946 11.32 58.48 12.4412 58.851 13.3541C59.2277 14.267 59.7551 14.9593 60.4332 15.4311C61.1113 15.9029 61.9054 16.1387 62.8153 16.1387C63.7252 16.1387 64.5193 15.9029 65.1974 15.4311C65.8755 14.9593 66.4 14.267 66.7709 13.3541C67.1477 12.4412 67.336 11.32 67.336 9.99051Z" fill="#1B4B91"/>
<path d="M122.125 45.065L125.081 26.2436H128.846L127.55 34.5423H127.785L135.488 26.2436H140L132.097 34.671L137.122 45.065H132.619L128.985 37.3269L126.742 39.7347L125.89 45.065H122.125Z" fill="#3C3C3C"/>
<path d="M121.33 32.8329H117.574C117.586 32.306 117.522 31.8404 117.383 31.436C117.244 31.0255 117.035 30.6763 116.757 30.3883C116.485 30.1004 116.151 29.8829 115.757 29.7358C115.363 29.5827 114.92 29.5061 114.427 29.5061C113.477 29.5061 112.604 29.7573 111.81 30.2597C111.016 30.7621 110.347 31.4912 109.802 32.4469C109.257 33.3966 108.881 34.5454 108.672 35.8932C108.469 37.1921 108.481 38.2796 108.707 39.1558C108.933 40.0319 109.333 40.6936 109.906 41.1408C110.486 41.582 111.208 41.8025 112.071 41.8025C112.604 41.8025 113.111 41.7321 113.593 41.5912C114.074 41.4441 114.511 41.2358 114.905 40.9662C115.305 40.6905 115.653 40.3566 115.949 39.9645C116.25 39.5724 116.485 39.1282 116.653 38.6319H120.434C120.197 39.4958 119.826 40.329 119.322 41.1316C118.823 41.9343 118.206 42.6511 117.47 43.2821C116.734 43.9071 115.896 44.4033 114.957 44.771C114.018 45.1386 112.99 45.3224 111.871 45.3224C110.254 45.3224 108.866 44.9303 107.707 44.146C106.553 43.3618 105.722 42.2314 105.212 40.7549C104.702 39.2783 104.606 37.4985 104.925 35.4154C105.244 33.3996 105.867 31.6903 106.794 30.2872C107.727 28.8781 108.86 27.809 110.193 27.0799C111.532 26.3508 112.964 25.9862 114.488 25.9862C115.549 25.9862 116.508 26.1394 117.366 26.4457C118.223 26.7521 118.954 27.1993 119.556 27.7875C120.165 28.3696 120.623 29.0833 120.93 29.9288C121.237 30.7743 121.37 31.7424 121.33 32.8329Z" fill="#3C3C3C"/>
<path d="M89.309 45.065H85.2751L94.3775 26.2436H99.2286L102.41 45.065H98.3766L96.2118 30.5446H96.0727L89.309 45.065ZM90.2306 37.6669H99.7589L99.2546 40.7732H89.7263L90.2306 37.6669Z" fill="#3C3C3C"/>
<path d="M70.0305 45.065L72.9864 26.2436H80.0109C81.3555 26.2436 82.4625 26.4948 83.3319 26.9972C84.2071 27.4996 84.8214 28.2133 85.175 29.1385C85.5343 30.0575 85.6183 31.1419 85.4271 32.3918C85.23 33.6417 84.804 34.7138 84.1491 35.6083C83.5 36.5029 82.6538 37.1921 81.6105 37.6761C80.5731 38.154 79.3705 38.393 78.0027 38.393H73.2994L73.821 35.1948H77.907C78.6257 35.1948 79.2401 35.0906 79.7501 34.8823C80.2601 34.674 80.6629 34.3615 80.9585 33.9449C81.2599 33.5283 81.457 33.0106 81.5497 32.3918C81.6482 31.7607 81.6134 31.2338 81.4454 30.8111C81.2773 30.3822 80.973 30.0575 80.5325 29.8369C80.092 29.6102 79.5125 29.4969 78.7938 29.4969H76.2552L73.7949 45.065H70.0305ZM80.9846 36.4998L84.0709 45.065H79.9153L76.9246 36.4998H80.9846Z" fill="#3C3C3C"/>
<path d="M55.4341 29.5245L55.9557 26.2436H70.5785L70.0569 29.5245H64.6059L62.1717 45.065H58.4508L60.885 29.5245H55.4341Z" fill="#3C3C3C"/>
<rect x="0.000244141" y="0.322388" width="45" height="45" rx="8" fill="#1B4B91"/>
<path d="M7.53589 29.8314C7.6787 30.0474 7.99562 30.0474 8.13843 29.8314L8.73999 28.9212V38.4671L6.83081 40.5228H6.81421V28.7396L7.53589 29.8314ZM40.3972 19.1439L26.115 34.0081C25.7826 34.354 25.2412 34.3932 24.8621 34.1146C24.7815 34.071 24.7056 34.0149 24.6384 33.9466C23.6849 32.9771 22.9558 32.2302 22.2273 31.4847L22.2146 31.473C21.6773 30.9231 21.1402 30.3726 20.5125 29.7327L10.3416 40.5228H7.7771L19.8054 27.763L20.4841 27.0433L21.1775 27.7484C22.1311 28.718 22.861 29.4647 23.5896 30.2103C24.1579 30.7918 24.7263 31.3733 25.4001 32.0599L40.408 16.4407L40.3972 19.1439ZM34.0261 13.3519L33.4246 12.4417C33.2818 12.2257 32.9648 12.2257 32.822 12.4417L32.0994 13.5335V7.04913H21.3835V26.7191L20.5173 25.7874L19.4568 26.929V7.04913H17.7712C12.7838 7.04914 8.74006 11.092 8.73999 16.0794V23.8157H10.5417C10.8303 23.8157 11.0026 24.1373 10.8425 24.3773L8.0769 28.514C7.93381 28.7277 7.61931 28.7279 7.47632 28.514L4.71167 24.3773C4.55166 24.1374 4.72317 23.8161 5.01147 23.8157H6.81421V16.0794C6.81427 10.028 11.7198 5.12238 17.7712 5.12238H34.0261V13.3519ZM32.7625 13.7591C32.9055 13.5454 33.22 13.5454 33.363 13.7591L36.1287 17.8958C36.2887 18.1358 36.1164 18.4573 35.8279 18.4573H34.0261V22.1107L32.0994 24.2054V18.4573H30.2976C30.0089 18.4573 29.8374 18.1358 29.9978 17.8958L32.7625 13.7591Z" fill="white"/>
</svg>
