<svg width="197" height="32" viewBox="0 0 197 32" fill="none" xmlns="http://www.w3.org/2000/svg">
<path d="M107 15V18H99V15H107Z" fill="#1B4B91"/>
<path d="M89.5228 12.6703C89.4532 11.929 89.1548 11.3531 88.6273 10.9426C88.0999 10.5321 87.3841 10.3268 86.48 10.3268C85.8656 10.3268 85.3469 10.4187 84.9238 10.6025C84.5007 10.7802 84.1762 11.0284 83.9501 11.347C83.7299 11.6655 83.6198 12.027 83.6198 12.4314C83.6082 12.7684 83.6748 13.0625 83.8197 13.3137C83.9704 13.5648 84.1762 13.7824 84.437 13.9662C84.6978 14.1438 84.9992 14.3001 85.3411 14.4349C85.6831 14.5635 86.0482 14.6738 86.4365 14.7657L88.0362 15.1701C88.8128 15.3539 89.5257 15.5989 90.1748 15.9053C90.8239 16.2116 91.3861 16.5884 91.8614 17.0357C92.3367 17.4829 92.7047 18.0098 92.9655 18.6164C93.2321 19.2229 93.3683 19.9183 93.3741 20.7026C93.3683 21.8544 93.0901 22.8531 92.5395 23.6985C91.9947 24.5379 91.2065 25.1904 90.1748 25.6561C89.149 26.1156 87.9116 26.3453 86.4626 26.3453C85.0252 26.3453 83.7733 26.1125 82.7069 25.6469C81.6463 25.1812 80.8175 24.492 80.2205 23.5791C79.6293 22.6601 79.3193 21.5235 79.2903 20.1695H82.933C82.9735 20.8006 83.1445 21.3275 83.4459 21.7502C83.7531 22.1669 84.1617 22.4824 84.6717 22.6968C85.1875 22.9051 85.77 23.0093 86.4191 23.0093C87.0567 23.0093 87.6102 22.9113 88.0796 22.7152C88.5549 22.5191 88.9229 22.2465 89.1837 21.8973C89.4445 21.548 89.5749 21.1467 89.5749 20.6934C89.5749 20.2706 89.4561 19.9153 89.2185 19.6273C88.9867 19.3393 88.6447 19.0943 88.1926 18.8921C87.7464 18.6899 87.1987 18.5061 86.5495 18.3407L84.6108 17.826C83.1097 17.44 81.9245 16.8366 81.0551 16.0156C80.1857 15.1946 79.754 14.0887 79.7597 12.6979C79.754 11.5583 80.0408 10.5627 80.6204 9.7111C81.2058 8.85948 82.0085 8.19472 83.0286 7.71683C84.0486 7.23894 85.2078 7 86.5061 7C87.8275 7 88.9809 7.23894 89.9662 7.71683C90.9572 8.19472 91.7281 8.85948 92.2787 9.7111C92.8293 10.5627 93.1133 11.5491 93.1307 12.6703H89.5228Z" fill="#1B4B91"/>
<path d="M76.7668 7.25731V26.0788H73.0024V7.25731H76.7668Z" fill="#1B4B91"/>
<path d="M55.9717 10.5382V7.25731H70.5945V10.5382H65.1435V26.0788H61.4226V10.5382H55.9717Z" fill="#1B4B91"/>
<path d="M54.6745 16.6681C54.6745 18.7206 54.3065 20.4667 53.5704 21.9065C52.8402 23.3463 51.8433 24.4461 50.5798 25.2058C49.3221 25.9594 47.9079 26.3362 46.3373 26.3362C44.755 26.3362 43.335 25.9563 42.0774 25.1966C40.8197 24.4369 39.8257 23.3371 39.0954 21.8973C38.3651 20.4575 38 18.7145 38 16.6681C38 14.6156 38.3651 12.8695 39.0954 11.4297C39.8257 9.98992 40.8197 8.89322 42.0774 8.13963C43.335 7.37991 44.755 7.00005 46.3373 7.00005C47.9079 7.00005 49.3221 7.37991 50.5798 8.13963C51.8433 8.89322 52.8402 9.98992 53.5704 11.4297C54.3065 12.8695 54.6745 14.6156 54.6745 16.6681ZM50.858 16.6681C50.858 15.3386 50.6696 14.2174 50.2929 13.3045C49.922 12.3916 49.3975 11.6993 48.7193 11.2275C48.0412 10.7558 47.2472 10.5199 46.3373 10.5199C45.4273 10.5199 44.6333 10.7558 43.9552 11.2275C43.2771 11.6993 42.7497 12.3916 42.3729 13.3045C42.002 14.2174 41.8165 15.3386 41.8165 16.6681C41.8165 17.9976 42.002 19.1188 42.3729 20.0317C42.7497 20.9446 43.2771 21.6369 43.9552 22.1087C44.6333 22.5805 45.4273 22.8163 46.3373 22.8163C47.2472 22.8163 48.0412 22.5805 48.7193 22.1087C49.3975 21.6369 49.922 20.9446 50.2929 20.0317C50.6696 19.1188 50.858 17.9976 50.858 16.6681Z" fill="#1B4B91"/>
<path d="M178.514 26.0788L181.47 7.25734H185.234L183.939 15.5561H184.174L191.876 7.25734H196.388L188.486 15.6847L193.511 26.0788H189.007L185.373 18.3407L183.13 20.7485L182.278 26.0788H178.514Z" fill="#3C3C3C"/>
<path d="M177.718 13.8467H173.963C173.974 13.3198 173.91 12.8542 173.771 12.4498C173.632 12.0393 173.424 11.6901 173.145 11.4021C172.873 11.1142 172.54 10.8967 172.146 10.7496C171.752 10.5964 171.308 10.5199 170.816 10.5199C169.865 10.5199 168.993 10.7711 168.199 11.2734C167.405 11.7758 166.735 12.5049 166.19 13.4607C165.646 14.4104 165.269 15.5591 165.06 16.907C164.857 18.2059 164.869 19.2934 165.095 20.1695C165.321 21.0457 165.721 21.7074 166.295 22.1546C166.874 22.5957 167.596 22.8163 168.46 22.8163C168.993 22.8163 169.5 22.7459 169.981 22.6049C170.462 22.4579 170.9 22.2496 171.294 21.98C171.694 21.7043 172.041 21.3704 172.337 20.9783C172.638 20.5862 172.873 20.142 173.041 19.6457H176.823C176.585 20.5096 176.214 21.3428 175.71 22.1454C175.212 22.948 174.594 23.6649 173.858 24.2959C173.122 24.9209 172.285 25.4171 171.346 25.7847C170.407 26.1523 169.378 26.3361 168.26 26.3361C166.643 26.3361 165.254 25.944 164.095 25.1598C162.942 24.3756 162.11 23.2452 161.6 21.7686C161.09 20.2921 160.995 18.5122 161.313 16.4291C161.632 14.4134 162.255 12.7041 163.182 11.301C164.116 9.89186 165.249 8.82273 166.582 8.09365C167.921 7.36456 169.352 7.00002 170.876 7.00002C171.937 7.00002 172.896 7.15318 173.754 7.45952C174.612 7.76586 175.342 8.21312 175.945 8.80129C176.553 9.38333 177.011 10.0971 177.318 10.9426C177.626 11.7881 177.759 12.7561 177.718 13.8467Z" fill="#3C3C3C"/>
<path d="M145.697 26.0788H141.664L150.766 7.25734H155.617L158.799 26.0788H154.765L152.6 11.5583H152.461L145.697 26.0788ZM146.619 18.6807H156.147L155.643 21.787H146.115L146.619 18.6807Z" fill="#3C3C3C"/>
<path d="M126.419 26.0788L129.375 7.25734H136.399C137.744 7.25734 138.851 7.50854 139.72 8.01093C140.595 8.51333 141.21 9.2271 141.563 10.1522C141.923 11.0713 142.007 12.1557 141.816 13.4056C141.618 14.6554 141.192 15.7276 140.538 16.6221C139.888 17.5166 139.042 18.2059 137.999 18.6899C136.962 19.1678 135.759 19.4068 134.391 19.4068H129.688L130.209 16.2086H134.295C135.014 16.2086 135.628 16.1044 136.139 15.8961C136.649 15.6878 137.051 15.3753 137.347 14.9587C137.648 14.5421 137.845 14.0244 137.938 13.4056C138.037 12.7745 138.002 12.2476 137.834 11.8249C137.666 11.396 137.361 11.0713 136.921 10.8507C136.48 10.624 135.901 10.5107 135.182 10.5107H132.644L130.183 26.0788H126.419ZM137.373 17.5136L140.459 26.0788H136.304L133.313 17.5136H137.373Z" fill="#3C3C3C"/>
<path d="M111.823 10.5382L112.344 7.25734H126.967L126.445 10.5382H120.994L118.56 26.0788H114.839L117.273 10.5382H111.823Z" fill="#3C3C3C"/>
<rect x="0.000244141" width="32" height="32" rx="6" fill="#1B4B91"/>
<path d="M5.35864 20.9846C5.46015 21.1382 5.68573 21.138 5.78735 20.9846L6.21509 20.3372V27.1252L4.85767 28.5872H4.84595V20.2073L5.35864 20.9846ZM28.7268 13.384L18.5706 23.9543C18.3342 24.2003 17.9496 24.2286 17.6799 24.0305C17.6225 23.9995 17.5686 23.9591 17.5208 23.9104C16.8426 23.2209 16.324 22.6896 15.8059 22.1594L15.7961 22.1506C15.4145 21.76 15.0331 21.3688 14.5872 20.9143L7.35376 28.5872H5.53052L14.0842 19.5129L14.5667 19.0012L15.0598 19.5032C15.738 20.1928 16.2575 20.7239 16.7756 21.2542C17.1795 21.6675 17.5829 22.0807 18.0618 22.5686L28.7346 11.4622L28.7268 13.384ZM24.1965 9.26489L23.7688 8.61841C23.6672 8.46478 23.4416 8.46478 23.3401 8.61841L22.8264 9.39478V4.78345H15.2063V18.7708L14.5901 18.1086L13.8362 18.9202V4.78345H12.637C9.09044 4.78359 6.21509 7.65877 6.21509 11.2053V16.7063H7.49634C7.70158 16.7063 7.82413 16.935 7.71021 17.1057L5.74438 20.0471C5.64267 20.1993 5.41836 20.1993 5.31665 20.0471L3.35083 17.1057C3.23694 16.9352 3.35872 16.7066 3.56372 16.7063H4.84595V11.2053C4.84595 6.90215 8.33382 3.41347 12.637 3.41333H24.1965V9.26489ZM23.2981 9.55493C23.3998 9.40313 23.6231 9.4031 23.7249 9.55493L25.6917 12.4963C25.8057 12.667 25.683 12.8957 25.4778 12.8958H24.1965V15.4934L22.8264 16.9836V12.8958H21.5452C21.3399 12.8957 21.2172 12.667 21.3313 12.4963L23.2981 9.55493Z" fill="white"/>
</svg>
